<svg width="50" height="224" viewBox="0 0 50 224" fill="none" xmlns="http://www.w3.org/2000/svg">
    <path d="M50 25C50 34.2535 44.9725 42.3328 37.5 46.6554C34.7703 48.3622 32.9545 51.657 32.9545 55.1136C32.9545 58.5703 34.7703 61.8651 37.5 63.5718C44.9725 67.8944 50 75.9737 50 85.2273V198.864C50 212.671 38.8071 223.864 25 223.864C11.1929 223.864 0 212.671 0 198.864V85.2273C0 75.9737 5.02748 67.8944 12.5 63.5718C15.2297 61.8651 17.0455 58.5703 17.0455 55.1136C17.0455 51.657 15.2297 48.3622 12.5 46.6554C5.02748 42.3328 0 34.2535 0 25C0 11.1929 11.1929 0 25 0C38.8071 0 50 11.1929 50 25Z" fill="#E9E9E9"/>
</svg>
